<svg xmlns="http://www.w3.org/2000/svg" xmlns:xlink="http://www.w3.org/1999/xlink" width="500" zoomAndPan="magnify" viewBox="0 0 375 374.999991" height="500" preserveAspectRatio="xMidYMid meet" version="1.0"><defs><g/><clipPath id="694cc3c198"><path d="M 21.984375 187.5 L 187.5 187.5 L 187.5 199.042969 L 21.984375 199.042969 Z M 21.984375 187.5 " clip-rule="nonzero"/></clipPath><clipPath id="625edf4b95"><path d="M 231.007812 152.109375 L 323.898438 152.109375 L 323.898438 162.4375 L 231.007812 162.4375 Z M 231.007812 152.109375 " clip-rule="nonzero"/></clipPath></defs><g clip-path="url(#694cc3c198)"><path fill="#ffffff" d="M 21.984375 187.5 L 187.496094 187.5 L 187.496094 199.042969 L 21.984375 199.042969 Z M 21.984375 187.5 " fill-opacity="1" fill-rule="nonzero"/></g><g clip-path="url(#625edf4b95)"><path fill="#0097b2" d="M 231.007812 152.109375 L 323.894531 152.109375 L 323.894531 162.4375 L 231.007812 162.4375 Z M 231.007812 152.109375 " fill-opacity="1" fill-rule="nonzero"/></g><g fill="#ffffff" fill-opacity="1"><g transform="translate(24.881793, 168.871043)"><g><path d="M 2.359375 0 L 2.359375 -19.59375 L 10.109375 -19.59375 C 12.179688 -19.59375 13.988281 -19.179688 15.53125 -18.359375 C 17.082031 -17.546875 18.285156 -16.398438 19.140625 -14.921875 C 20.003906 -13.453125 20.4375 -11.742188 20.4375 -9.796875 C 20.4375 -7.835938 20.003906 -6.125 19.140625 -4.65625 C 18.285156 -3.195312 17.082031 -2.054688 15.53125 -1.234375 C 13.988281 -0.410156 12.179688 0 10.109375 0 Z M 6.796875 -4.09375 L 10.03125 -4.09375 C 11.1875 -4.09375 12.203125 -4.328125 13.078125 -4.796875 C 13.953125 -5.273438 14.632812 -5.941406 15.125 -6.796875 C 15.625 -7.660156 15.875 -8.660156 15.875 -9.796875 C 15.875 -10.953125 15.625 -11.953125 15.125 -12.796875 C 14.632812 -13.648438 13.945312 -14.316406 13.0625 -14.796875 C 12.175781 -15.273438 11.144531 -15.515625 9.96875 -15.515625 L 6.796875 -15.515625 Z M 6.796875 -4.09375 "/></g></g></g><g fill="#ffffff" fill-opacity="1"><g transform="translate(52.290849, 168.871043)"><g><path d="M 2.359375 0 L 2.359375 -19.59375 L 6.796875 -19.59375 L 6.796875 0 Z M 2.359375 0 "/></g></g></g><g fill="#ffffff" fill-opacity="1"><g transform="translate(67.241604, 168.871043)"><g><path d="M 2.359375 0 L 2.359375 -19.59375 L 6.796875 -19.59375 L 6.796875 -12.0625 L 8.484375 -12.0625 C 9.585938 -12.0625 10.394531 -12.238281 10.90625 -12.59375 C 11.414062 -12.945312 11.84375 -13.582031 12.1875 -14.5 L 14.03125 -19.59375 L 18.84375 -19.59375 L 16.125 -12.625 C 15.882812 -11.988281 15.609375 -11.414062 15.296875 -10.90625 C 14.992188 -10.40625 14.644531 -9.972656 14.25 -9.609375 L 19.546875 0 L 14.359375 0 L 10.15625 -7.953125 C 9.988281 -7.929688 9.828125 -7.921875 9.671875 -7.921875 C 9.515625 -7.921875 9.34375 -7.921875 9.15625 -7.921875 L 6.796875 -7.921875 L 6.796875 0 Z M 2.359375 0 "/></g></g></g><g fill="#ffffff" fill-opacity="1"><g transform="translate(93.390836, 168.871043)"><g><path d="M 9.1875 0.390625 C 7.539062 0.390625 6.125 0.117188 4.9375 -0.421875 C 3.75 -0.960938 2.832031 -1.734375 2.1875 -2.734375 C 1.550781 -3.734375 1.234375 -4.90625 1.234375 -6.25 L 5.59375 -6.25 C 5.59375 -5.3125 5.914062 -4.582031 6.5625 -4.0625 C 7.207031 -3.539062 8.070312 -3.28125 9.15625 -3.28125 C 10.09375 -3.28125 10.832031 -3.460938 11.375 -3.828125 C 11.914062 -4.191406 12.1875 -4.695312 12.1875 -5.34375 C 12.1875 -6.039062 11.859375 -6.601562 11.203125 -7.03125 C 10.546875 -7.457031 9.523438 -7.820312 8.140625 -8.125 C 5.847656 -8.601562 4.148438 -9.335938 3.046875 -10.328125 C 1.953125 -11.316406 1.40625 -12.609375 1.40625 -14.203125 C 1.40625 -15.992188 2.054688 -17.40625 3.359375 -18.4375 C 4.660156 -19.46875 6.441406 -19.984375 8.703125 -19.984375 C 10.253906 -19.984375 11.597656 -19.71875 12.734375 -19.1875 C 13.878906 -18.65625 14.765625 -17.910156 15.390625 -16.953125 C 16.015625 -15.992188 16.328125 -14.851562 16.328125 -13.53125 L 12.046875 -13.53125 C 12.046875 -14.40625 11.753906 -15.09375 11.171875 -15.59375 C 10.585938 -16.101562 9.785156 -16.359375 8.765625 -16.359375 C 7.828125 -16.359375 7.085938 -16.175781 6.546875 -15.8125 C 6.003906 -15.445312 5.734375 -14.9375 5.734375 -14.28125 C 5.734375 -13.6875 6.03125 -13.179688 6.625 -12.765625 C 7.226562 -12.359375 8.273438 -11.976562 9.765625 -11.625 C 12.210938 -11.039062 13.976562 -10.265625 15.0625 -9.296875 C 16.144531 -8.328125 16.6875 -7.066406 16.6875 -5.515625 C 16.6875 -3.671875 16.019531 -2.222656 14.6875 -1.171875 C 13.351562 -0.128906 11.519531 0.390625 9.1875 0.390625 Z M 9.1875 0.390625 "/></g></g></g><g fill="#ffffff" fill-opacity="1"><g transform="translate(117.132393, 168.871043)"><g><path d="M 14.46875 0 L 14.46875 -7.890625 L 6.796875 -7.890625 L 6.796875 0 L 2.359375 0 L 2.359375 -19.59375 L 6.796875 -19.59375 L 6.796875 -12.0625 L 14.46875 -12.0625 L 14.46875 -19.59375 L 18.921875 -19.59375 L 18.921875 0 Z M 14.46875 0 "/></g></g></g><g fill="#ffffff" fill-opacity="1"><g transform="translate(144.205496, 168.871043)"><g><path d="M 0.25 0 L 8.03125 -19.59375 L 12.40625 -19.59375 L 20.1875 0 L 15.421875 0 L 14.109375 -3.390625 L 6.328125 -3.390625 L 5.015625 0 Z M 7.46875 -6.890625 L 12.984375 -6.890625 L 10.21875 -14.0625 Z M 7.46875 -6.890625 "/></g></g></g><g fill="#ffffff" fill-opacity="1"><g transform="translate(170.438718, 168.871043)"><g><path d="M 2.359375 0 L 2.359375 -19.59375 L 6.125 -19.59375 L 14.78125 -7.671875 L 14.78125 -19.59375 L 19.203125 -19.59375 L 19.203125 0 L 15.421875 0 L 6.78125 -12.015625 L 6.78125 0 Z M 2.359375 0 "/></g></g></g><g fill="#ffffff" fill-opacity="1"><g transform="translate(197.791789, 168.871043)"><g><path d="M 7.0625 0 L 7.0625 -15.421875 L 0.84375 -15.421875 L 0.84375 -19.59375 L 17.71875 -19.59375 L 17.71875 -15.421875 L 11.515625 -15.421875 L 11.515625 0 Z M 7.0625 0 "/></g></g></g><g fill="#0097b2" fill-opacity="1"><g transform="translate(212.197505, 202.271003)"><g><path d="M 1.03125 0 L 1.03125 -4.171875 L 3.921875 -4.171875 C 5.117188 -4.171875 5.953125 -4.453125 6.421875 -5.015625 C 6.898438 -5.585938 7.140625 -6.414062 7.140625 -7.5 L 7.140625 -19.59375 L 11.625 -19.59375 L 11.625 -7.171875 C 11.625 -4.910156 11 -3.148438 9.75 -1.890625 C 8.5 -0.628906 6.648438 0 4.203125 0 Z M 1.03125 0 "/></g></g></g><g fill="#0097b2" fill-opacity="1"><g transform="translate(231.907618, 202.271003)"><g><path d="M 11.640625 0.390625 C 9.609375 0.390625 7.800781 -0.0390625 6.21875 -0.90625 C 4.644531 -1.78125 3.414062 -2.976562 2.53125 -4.5 C 1.644531 -6.03125 1.203125 -7.796875 1.203125 -9.796875 C 1.203125 -11.796875 1.644531 -13.5625 2.53125 -15.09375 C 3.414062 -16.625 4.644531 -17.820312 6.21875 -18.6875 C 7.800781 -19.550781 9.609375 -19.984375 11.640625 -19.984375 C 13.703125 -19.984375 15.515625 -19.550781 17.078125 -18.6875 C 18.648438 -17.820312 19.882812 -16.625 20.78125 -15.09375 C 21.675781 -13.5625 22.125 -11.796875 22.125 -9.796875 C 22.125 -7.796875 21.675781 -6.03125 20.78125 -4.5 C 19.882812 -2.976562 18.648438 -1.78125 17.078125 -0.90625 C 15.515625 -0.0390625 13.703125 0.390625 11.640625 0.390625 Z M 5.734375 -9.796875 C 5.734375 -8.617188 5.984375 -7.582031 6.484375 -6.6875 C 6.992188 -5.789062 7.691406 -5.09375 8.578125 -4.59375 C 9.460938 -4.09375 10.484375 -3.84375 11.640625 -3.84375 C 12.816406 -3.84375 13.847656 -4.09375 14.734375 -4.59375 C 15.628906 -5.09375 16.320312 -5.789062 16.8125 -6.6875 C 17.3125 -7.582031 17.5625 -8.617188 17.5625 -9.796875 C 17.5625 -10.972656 17.3125 -12.007812 16.8125 -12.90625 C 16.320312 -13.800781 15.628906 -14.5 14.734375 -15 C 13.847656 -15.507812 12.816406 -15.765625 11.640625 -15.765625 C 10.484375 -15.765625 9.460938 -15.507812 8.578125 -15 C 7.691406 -14.5 6.992188 -13.800781 6.484375 -12.90625 C 5.984375 -12.007812 5.734375 -10.972656 5.734375 -9.796875 Z M 5.734375 -9.796875 "/></g></g></g><g fill="#0097b2" fill-opacity="1"><g transform="translate(261.024441, 202.271003)"><g><path d="M 9.1875 0.390625 C 7.539062 0.390625 6.125 0.117188 4.9375 -0.421875 C 3.75 -0.960938 2.832031 -1.734375 2.1875 -2.734375 C 1.550781 -3.734375 1.234375 -4.90625 1.234375 -6.25 L 5.59375 -6.25 C 5.59375 -5.3125 5.914062 -4.582031 6.5625 -4.0625 C 7.207031 -3.539062 8.070312 -3.28125 9.15625 -3.28125 C 10.09375 -3.28125 10.832031 -3.460938 11.375 -3.828125 C 11.914062 -4.191406 12.1875 -4.695312 12.1875 -5.34375 C 12.1875 -6.039062 11.859375 -6.601562 11.203125 -7.03125 C 10.546875 -7.457031 9.523438 -7.820312 8.140625 -8.125 C 5.847656 -8.601562 4.148438 -9.335938 3.046875 -10.328125 C 1.953125 -11.316406 1.40625 -12.609375 1.40625 -14.203125 C 1.40625 -15.992188 2.054688 -17.40625 3.359375 -18.4375 C 4.660156 -19.46875 6.441406 -19.984375 8.703125 -19.984375 C 10.253906 -19.984375 11.597656 -19.71875 12.734375 -19.1875 C 13.878906 -18.65625 14.765625 -17.910156 15.390625 -16.953125 C 16.015625 -15.992188 16.328125 -14.851562 16.328125 -13.53125 L 12.046875 -13.53125 C 12.046875 -14.40625 11.753906 -15.09375 11.171875 -15.59375 C 10.585938 -16.101562 9.785156 -16.359375 8.765625 -16.359375 C 7.828125 -16.359375 7.085938 -16.175781 6.546875 -15.8125 C 6.003906 -15.445312 5.734375 -14.9375 5.734375 -14.28125 C 5.734375 -13.6875 6.03125 -13.179688 6.625 -12.765625 C 7.226562 -12.359375 8.273438 -11.976562 9.765625 -11.625 C 12.210938 -11.039062 13.976562 -10.265625 15.0625 -9.296875 C 16.144531 -8.328125 16.6875 -7.066406 16.6875 -5.515625 C 16.6875 -3.671875 16.019531 -2.222656 14.6875 -1.171875 C 13.351562 -0.128906 11.519531 0.390625 9.1875 0.390625 Z M 9.1875 0.390625 "/></g></g></g><g fill="#0097b2" fill-opacity="1"><g transform="translate(284.765998, 202.271003)"><g><path d="M 14.46875 0 L 14.46875 -7.890625 L 6.796875 -7.890625 L 6.796875 0 L 2.359375 0 L 2.359375 -19.59375 L 6.796875 -19.59375 L 6.796875 -12.0625 L 14.46875 -12.0625 L 14.46875 -19.59375 L 18.921875 -19.59375 L 18.921875 0 Z M 14.46875 0 "/></g></g></g><g fill="#0097b2" fill-opacity="1"><g transform="translate(311.839101, 202.271003)"><g><path d="M 2.359375 0 L 2.359375 -19.59375 L 6.796875 -19.59375 L 6.796875 0 Z M 2.359375 0 "/></g></g></g></svg>