<svg xmlns="http://www.w3.org/2000/svg" xmlns:xlink="http://www.w3.org/1999/xlink" width="500" zoomAndPan="magnify" viewBox="0 0 375 374.999991" height="500" preserveAspectRatio="xMidYMid meet" version="1.0"><defs><g/></defs><g fill="#ffffff" fill-opacity="1"><g transform="translate(215.613916, 267.133283)"><g><path d="M -12.546875 21.4375 C -9.691406 22.382812 -6.859375 22.859375 -4.046875 22.859375 C -1.242188 22.859375 1.6875 22.273438 4.75 21.109375 C 7.820312 19.953125 10.628906 18.128906 13.171875 15.640625 C 15.710938 13.148438 17.800781 9.414062 19.4375 4.4375 C 21.082031 -0.53125 21.90625 -6.40625 21.90625 -13.1875 L 21.90625 -99.5625 C 21.800781 -102.3125 20.769531 -104.664062 18.8125 -106.625 C 16.851562 -108.582031 14.5 -109.5625 11.75 -109.5625 L 9.6875 -109.5625 L 9.6875 -111.15625 L 44.453125 -111.15625 L 44.453125 -109.5625 L 42.390625 -109.5625 C 39.640625 -109.5625 37.285156 -108.609375 35.328125 -106.703125 C 33.367188 -104.804688 32.335938 -102.425781 32.234375 -99.5625 L 32.234375 -12.703125 C 32.234375 -5.503906 31.117188 0.789062 28.890625 6.1875 C 26.671875 11.59375 23.867188 15.671875 20.484375 18.421875 C 14.128906 23.398438 7.085938 25.890625 -0.640625 25.890625 C -5.191406 25.890625 -9.375 24.988281 -13.1875 23.1875 Z M -12.546875 21.4375 "/></g></g></g><g fill="#ffffff" fill-opacity="1"><g transform="translate(89.914057, 235.883305)"><g><path d="M -15.875 -87.96875 C -12.8125 -96.96875 -7.675781 -103.160156 -0.46875 -106.546875 C 6.726562 -109.941406 19.484375 -111.640625 37.796875 -111.640625 C 41.609375 -111.640625 51.238281 -111.476562 66.6875 -111.15625 C 77.914062 -110.84375 87.816406 -108.410156 96.390625 -103.859375 C 104.960938 -99.304688 111.65625 -92.875 116.46875 -84.5625 C 121.289062 -76.25 123.703125 -66.585938 123.703125 -55.578125 C 123.703125 -38.953125 118.4375 -25.53125 107.90625 -15.3125 C 97.375 -5.101562 83.632812 0 66.6875 0 L 12.859375 0 L 13.015625 -1.59375 L 14.921875 -1.59375 C 17.566406 -1.59375 19.84375 -2.460938 21.75 -4.203125 C 23.65625 -5.953125 24.769531 -8.097656 25.09375 -10.640625 L 25.09375 -106.390625 C 11.851562 -106.078125 2.484375 -104.015625 -3.015625 -100.203125 C -5.867188 -98.191406 -8.035156 -96.257812 -9.515625 -94.40625 C -11.003906 -92.550781 -12.546875 -90.195312 -14.140625 -87.34375 Z M 35.40625 -106.390625 L 35.40625 -4.765625 L 66.6875 -4.765625 C 80.132812 -4.765625 91.015625 -9.421875 99.328125 -18.734375 C 107.640625 -28.054688 111.796875 -40.335938 111.796875 -55.578125 C 111.796875 -65.640625 109.914062 -74.503906 106.15625 -82.171875 C 102.394531 -89.847656 97.097656 -95.800781 90.265625 -100.03125 C 83.441406 -104.269531 75.582031 -106.390625 66.6875 -106.390625 Z M 35.40625 -106.390625 "/></g></g></g><path fill="#000000" d="M 86.332031 179.496094 L 273.984375 179.496094 C 275.046875 179.496094 276.0625 179.917969 276.8125 180.667969 C 277.5625 181.417969 277.984375 182.4375 277.984375 183.5 L 277.984375 191.5 C 277.984375 192.5625 277.5625 193.582031 276.8125 194.332031 C 276.0625 195.082031 275.046875 195.503906 273.984375 195.503906 L 86.332031 195.503906 C 84.125 195.503906 82.332031 193.710938 82.332031 191.5 L 82.332031 183.5 C 82.332031 181.289062 84.125 179.496094 86.332031 179.496094 Z M 86.332031 179.496094 " fill-opacity="1" fill-rule="nonzero"/><g fill="#ffffff" fill-opacity="1"><g transform="translate(90.150101, 190.499987)"><g><path d="M 0.734375 0 L 0.734375 -7.109375 L 2.84375 -7.109375 C 4.226562 -7.109375 5.273438 -6.8125 5.984375 -6.21875 C 6.691406 -5.625 7.046875 -4.742188 7.046875 -3.578125 C 7.046875 -2.859375 6.882812 -2.226562 6.5625 -1.6875 C 6.25 -1.15625 5.804688 -0.738281 5.234375 -0.4375 C 4.660156 -0.144531 3.988281 0 3.21875 0 Z M 2.03125 -1.15625 L 3.171875 -1.15625 C 4.003906 -1.15625 4.632812 -1.351562 5.0625 -1.75 C 5.5 -2.15625 5.71875 -2.75 5.71875 -3.53125 C 5.71875 -4.34375 5.492188 -4.945312 5.046875 -5.34375 C 4.609375 -5.75 3.929688 -5.953125 3.015625 -5.953125 L 2.03125 -5.953125 Z M 2.03125 -1.15625 "/></g></g></g><g fill="#ffffff" fill-opacity="1"><g transform="translate(105.258516, 190.499987)"><g><path d="M 0.734375 0 L 0.734375 -7.109375 L 2.03125 -7.109375 L 2.03125 0 Z M 0.734375 0 "/></g></g></g><g fill="#ffffff" fill-opacity="1"><g transform="translate(115.643222, 190.499987)"><g><path d="M 0.734375 0 L 0.734375 -7.109375 L 2.03125 -7.109375 L 2.03125 -3.9375 L 4.984375 -7.109375 L 6.578125 -7.109375 L 3.21875 -3.5625 C 3.5 -3.414062 3.742188 -3.179688 3.953125 -2.859375 L 4.75 -1.625 C 4.882812 -1.40625 5.019531 -1.253906 5.15625 -1.171875 C 5.289062 -1.097656 5.457031 -1.0625 5.65625 -1.0625 C 5.894531 -1.0625 6.109375 -1.117188 6.296875 -1.234375 L 6.59375 -0.234375 C 6.46875 -0.128906 6.304688 -0.0507812 6.109375 0 C 5.910156 0.0625 5.703125 0.09375 5.484375 0.09375 C 4.734375 0.09375 4.144531 -0.238281 3.71875 -0.90625 L 2.6875 -2.484375 C 2.59375 -2.617188 2.5 -2.722656 2.40625 -2.796875 C 2.3125 -2.878906 2.1875 -2.9375 2.03125 -2.96875 L 2.03125 0 Z M 0.734375 0 "/></g></g></g><g fill="#ffffff" fill-opacity="1"><g transform="translate(129.570709, 190.499987)"><g><path d="M 2.9375 0.09375 C 2.101562 0.09375 1.453125 -0.09375 0.984375 -0.46875 C 0.523438 -0.84375 0.257812 -1.390625 0.1875 -2.109375 L 1.40625 -2.296875 C 1.53125 -1.441406 2.0625 -1.015625 3 -1.015625 C 3.40625 -1.015625 3.722656 -1.09375 3.953125 -1.25 C 4.179688 -1.414062 4.296875 -1.644531 4.296875 -1.9375 C 4.296875 -2.207031 4.179688 -2.410156 3.953125 -2.546875 C 3.722656 -2.679688 3.359375 -2.8125 2.859375 -2.9375 C 2.390625 -3.050781 1.988281 -3.1875 1.65625 -3.34375 C 1.320312 -3.5 1.066406 -3.707031 0.890625 -3.96875 C 0.710938 -4.238281 0.625 -4.59375 0.625 -5.03125 C 0.625 -5.457031 0.734375 -5.832031 0.953125 -6.15625 C 1.171875 -6.488281 1.46875 -6.75 1.84375 -6.9375 C 2.226562 -7.125 2.671875 -7.21875 3.171875 -7.21875 C 3.835938 -7.21875 4.378906 -7.039062 4.796875 -6.6875 C 5.210938 -6.34375 5.457031 -5.867188 5.53125 -5.265625 L 4.390625 -5.0625 C 4.253906 -5.757812 3.828125 -6.109375 3.109375 -6.109375 C 2.765625 -6.109375 2.484375 -6.015625 2.265625 -5.828125 C 2.046875 -5.648438 1.9375 -5.414062 1.9375 -5.125 C 1.9375 -4.832031 2.039062 -4.609375 2.25 -4.453125 C 2.46875 -4.296875 2.835938 -4.15625 3.359375 -4.03125 C 3.816406 -3.925781 4.210938 -3.800781 4.546875 -3.65625 C 4.878906 -3.519531 5.132812 -3.320312 5.3125 -3.0625 C 5.5 -2.8125 5.59375 -2.460938 5.59375 -2.015625 C 5.59375 -1.609375 5.476562 -1.242188 5.25 -0.921875 C 5.03125 -0.609375 4.722656 -0.359375 4.328125 -0.171875 C 3.929688 0.00390625 3.46875 0.09375 2.9375 0.09375 Z M 2.9375 0.09375 "/></g></g></g><g fill="#ffffff" fill-opacity="1"><g transform="translate(143.057851, 190.499987)"><g><path d="M 0.734375 0 L 0.734375 -7.109375 L 2.03125 -7.109375 L 2.03125 -4.171875 L 5.40625 -4.171875 L 5.40625 -7.109375 L 6.703125 -7.109375 L 6.703125 0 L 5.40625 0 L 5.40625 -3.03125 L 2.03125 -3.03125 L 2.03125 0 Z M 0.734375 0 "/></g></g></g><g fill="#ffffff" fill-opacity="1"><g transform="translate(158.106218, 190.499987)"><g><path d="M -0.09375 0 L 2.9375 -7.109375 L 4.03125 -7.109375 L 6.953125 0 L 5.625 0 L 4.984375 -1.625 L 1.890625 -1.625 L 1.21875 0 Z M 2.328125 -2.71875 L 4.5625 -2.71875 L 3.46875 -5.515625 Z M 2.328125 -2.71875 "/></g></g></g><g fill="#ffffff" fill-opacity="1"><g transform="translate(172.614161, 190.499987)"><g><path d="M 5.40625 -7.109375 L 6.65625 -7.109375 L 6.65625 0 L 5.515625 0 L 1.984375 -4.953125 L 1.984375 0 L 0.734375 0 L 0.734375 -7.109375 L 1.875 -7.109375 L 5.40625 -2.15625 Z M 5.40625 -7.109375 "/></g></g></g><g fill="#ffffff" fill-opacity="1"><g transform="translate(187.622491, 190.499987)"><g><path d="M 5.890625 -7.109375 L 5.734375 -5.96875 L 3.53125 -5.96875 L 3.53125 0 L 2.21875 0 L 2.21875 -5.96875 L -0.0625 -5.96875 L -0.0625 -7.109375 Z M 5.890625 -7.109375 "/></g></g></g><g fill="#ffffff" fill-opacity="1"><g transform="translate(200.989532, 190.499987)"><g/></g></g><g fill="#ffffff" fill-opacity="1"><g transform="translate(211.04399, 190.499987)"><g><path d="M 1.90625 0.09375 C 1.375 0.09375 0.914062 -0.0351562 0.53125 -0.296875 C 0.144531 -0.554688 -0.109375 -0.921875 -0.234375 -1.390625 L 0.828125 -1.875 C 0.929688 -1.601562 1.066406 -1.394531 1.234375 -1.25 C 1.410156 -1.113281 1.632812 -1.046875 1.90625 -1.046875 C 2.5 -1.046875 2.796875 -1.414062 2.796875 -2.15625 L 2.796875 -7.109375 L 4.109375 -7.109375 L 4.109375 -2.28125 C 4.109375 -1.519531 3.921875 -0.929688 3.546875 -0.515625 C 3.171875 -0.109375 2.625 0.09375 1.90625 0.09375 Z M 1.90625 0.09375 "/></g></g></g><g fill="#ffffff" fill-opacity="1"><g transform="translate(223.470305, 190.499987)"><g><path d="M 3.890625 0.09375 C 3.171875 0.09375 2.550781 -0.0390625 2.03125 -0.3125 C 1.519531 -0.59375 1.128906 -0.992188 0.859375 -1.515625 C 0.585938 -2.046875 0.453125 -2.679688 0.453125 -3.421875 C 0.453125 -4.160156 0.597656 -4.816406 0.890625 -5.390625 C 1.179688 -5.960938 1.59375 -6.410156 2.125 -6.734375 C 2.664062 -7.054688 3.304688 -7.21875 4.046875 -7.21875 C 4.703125 -7.21875 5.273438 -7.066406 5.765625 -6.765625 C 6.265625 -6.472656 6.648438 -6.0625 6.921875 -5.53125 C 7.191406 -5.007812 7.328125 -4.398438 7.328125 -3.703125 C 7.328125 -2.929688 7.175781 -2.257812 6.875 -1.6875 C 6.582031 -1.125 6.175781 -0.6875 5.65625 -0.375 C 5.144531 -0.0625 4.554688 0.09375 3.890625 0.09375 Z M 3.859375 -1.078125 C 4.273438 -1.078125 4.644531 -1.179688 4.96875 -1.390625 C 5.289062 -1.597656 5.546875 -1.894531 5.734375 -2.28125 C 5.921875 -2.664062 6.015625 -3.140625 6.015625 -3.703125 C 6.015625 -4.410156 5.832031 -4.976562 5.46875 -5.40625 C 5.101562 -5.832031 4.617188 -6.046875 4.015625 -6.046875 C 3.578125 -6.046875 3.191406 -5.9375 2.859375 -5.71875 C 2.523438 -5.5 2.257812 -5.195312 2.0625 -4.8125 C 1.863281 -4.425781 1.765625 -3.972656 1.765625 -3.453125 C 1.765625 -2.691406 1.953125 -2.101562 2.328125 -1.6875 C 2.703125 -1.28125 3.210938 -1.078125 3.859375 -1.078125 Z M 3.859375 -1.078125 "/></g></g></g><g fill="#ffffff" fill-opacity="1"><g transform="translate(238.868947, 190.499987)"><g><path d="M 2.9375 0.09375 C 2.101562 0.09375 1.453125 -0.09375 0.984375 -0.46875 C 0.523438 -0.84375 0.257812 -1.390625 0.1875 -2.109375 L 1.40625 -2.296875 C 1.53125 -1.441406 2.0625 -1.015625 3 -1.015625 C 3.40625 -1.015625 3.722656 -1.09375 3.953125 -1.25 C 4.179688 -1.414062 4.296875 -1.644531 4.296875 -1.9375 C 4.296875 -2.207031 4.179688 -2.410156 3.953125 -2.546875 C 3.722656 -2.679688 3.359375 -2.8125 2.859375 -2.9375 C 2.390625 -3.050781 1.988281 -3.1875 1.65625 -3.34375 C 1.320312 -3.5 1.066406 -3.707031 0.890625 -3.96875 C 0.710938 -4.238281 0.625 -4.59375 0.625 -5.03125 C 0.625 -5.457031 0.734375 -5.832031 0.953125 -6.15625 C 1.171875 -6.488281 1.46875 -6.75 1.84375 -6.9375 C 2.226562 -7.125 2.671875 -7.21875 3.171875 -7.21875 C 3.835938 -7.21875 4.378906 -7.039062 4.796875 -6.6875 C 5.210938 -6.34375 5.457031 -5.867188 5.53125 -5.265625 L 4.390625 -5.0625 C 4.253906 -5.757812 3.828125 -6.109375 3.109375 -6.109375 C 2.765625 -6.109375 2.484375 -6.015625 2.265625 -5.828125 C 2.046875 -5.648438 1.9375 -5.414062 1.9375 -5.125 C 1.9375 -4.832031 2.039062 -4.609375 2.25 -4.453125 C 2.46875 -4.296875 2.835938 -4.15625 3.359375 -4.03125 C 3.816406 -3.925781 4.210938 -3.800781 4.546875 -3.65625 C 4.878906 -3.519531 5.132812 -3.320312 5.3125 -3.0625 C 5.5 -2.8125 5.59375 -2.460938 5.59375 -2.015625 C 5.59375 -1.609375 5.476562 -1.242188 5.25 -0.921875 C 5.03125 -0.609375 4.722656 -0.359375 4.328125 -0.171875 C 3.929688 0.00390625 3.46875 0.09375 2.9375 0.09375 Z M 2.9375 0.09375 "/></g></g></g><g fill="#ffffff" fill-opacity="1"><g transform="translate(252.356083, 190.499987)"><g><path d="M 0.734375 0 L 0.734375 -7.109375 L 2.03125 -7.109375 L 2.03125 -4.171875 L 5.40625 -4.171875 L 5.40625 -7.109375 L 6.703125 -7.109375 L 6.703125 0 L 5.40625 0 L 5.40625 -3.03125 L 2.03125 -3.03125 L 2.03125 0 Z M 0.734375 0 "/></g></g></g><g fill="#ffffff" fill-opacity="1"><g transform="translate(267.404445, 190.499987)"><g><path d="M 0.734375 0 L 0.734375 -7.109375 L 2.03125 -7.109375 L 2.03125 0 Z M 0.734375 0 "/></g></g></g></svg>