<svg xmlns="http://www.w3.org/2000/svg" xmlns:xlink="http://www.w3.org/1999/xlink" width="500" zoomAndPan="magnify" viewBox="0 0 375 374.999991" height="500" preserveAspectRatio="xMidYMid meet" version="1.0"><defs><g/><clipPath id="e5d4c9f2e9"><path d="M 57.351562 172.328125 L 316.363281 172.328125 L 316.363281 202.378906 L 57.351562 202.378906 Z M 57.351562 172.328125 " clip-rule="nonzero"/></clipPath></defs><g fill="#ffffff" fill-opacity="1"><g transform="translate(180.247199, 240.485139)"><g><path d="M 49.15625 -110.796875 L 49.15625 -113.5 L 5.75 -113.5 L 5.75 -110.796875 L 19.25 -110.796875 L 19.25 -2.703125 L 5.75 -2.703125 L 5.75 0 L 49.15625 0 L 49.15625 -2.703125 L 35.640625 -2.703125 L 35.640625 -110.796875 Z M 85.46875 -110.796875 L 36.828125 -62.15625 L 78.546875 -2.703125 L 63.84375 -2.703125 L 63.84375 0 L 111.640625 0 L 111.640625 -2.703125 L 98.140625 -2.703125 L 50.328125 -71.28125 L 89.859375 -110.796875 L 104.21875 -110.796875 L 104.21875 -113.5 L 70.9375 -113.5 L 70.9375 -110.796875 Z M 85.46875 -110.796875 "/></g></g></g><g fill="#ffffff" fill-opacity="1"><g transform="translate(83.544219, 245.249984)"><g><path d="M 78.359375 -117.96875 L 73.328125 -111.546875 C 71.234375 -112.703125 69.257812 -113.742188 67.40625 -114.671875 C 65.5625 -115.597656 63.679688 -116.347656 61.765625 -116.921875 C 59.859375 -117.503906 57.832031 -117.941406 55.6875 -118.234375 C 53.539062 -118.523438 51.078125 -118.671875 48.296875 -118.671875 C 42.617188 -118.671875 37.550781 -117.742188 33.09375 -115.890625 C 28.632812 -114.035156 24.84375 -111.546875 21.71875 -108.421875 C 18.59375 -105.296875 16.21875 -101.703125 14.59375 -97.640625 C 12.96875 -93.585938 12.15625 -89.304688 12.15625 -84.796875 C 12.15625 -78.648438 14.035156 -73.03125 17.796875 -67.9375 C 21.566406 -62.84375 27.445312 -58.960938 35.4375 -56.296875 C 39.257812 -55.023438 42.503906 -53.984375 45.171875 -53.171875 C 47.835938 -52.359375 50.328125 -51.570312 52.640625 -50.8125 C 54.960938 -50.0625 57.3125 -49.253906 59.6875 -48.390625 C 62.0625 -47.523438 64.8125 -46.335938 67.9375 -44.828125 C 71.875 -42.972656 74.535156 -40.394531 75.921875 -37.09375 C 77.316406 -33.789062 78.015625 -30.460938 78.015625 -27.109375 C 78.015625 -22.929688 77.203125 -19.132812 75.578125 -15.71875 C 73.960938 -12.300781 71.820312 -9.4375 69.15625 -7.125 C 66.488281 -4.8125 63.414062 -3.015625 59.9375 -1.734375 C 56.46875 -0.460938 52.9375 0.171875 49.34375 0.171875 C 45.175781 0.171875 41.179688 -0.550781 37.359375 -2 C 33.535156 -3.445312 30 -5.5 26.75 -8.15625 C 23.507812 -10.820312 20.703125 -14.125 18.328125 -18.0625 C 15.953125 -22.007812 14.128906 -26.414062 12.859375 -31.28125 C 12.515625 -32.78125 11.878906 -33.53125 10.953125 -33.53125 C 10.140625 -33.53125 9.734375 -32.71875 9.734375 -31.09375 L 9.734375 0 C 9.734375 1.507812 10.253906 2.265625 11.296875 2.265625 C 11.992188 2.265625 12.742188 1.679688 13.546875 0.515625 L 19.8125 -8.515625 C 21.195312 -7.242188 22.898438 -5.910156 24.921875 -4.515625 C 26.953125 -3.128906 29.210938 -1.851562 31.703125 -0.6875 C 34.191406 0.46875 36.851562 1.421875 39.6875 2.171875 C 42.53125 2.921875 45.457031 3.296875 48.46875 3.296875 C 54.03125 3.296875 59.1875 2.28125 63.9375 0.25 C 68.6875 -1.769531 72.796875 -4.570312 76.265625 -8.15625 C 79.742188 -11.75 82.492188 -16.007812 84.515625 -20.9375 C 86.546875 -25.863281 87.5625 -31.160156 87.5625 -36.828125 C 87.5625 -44.585938 85.738281 -51.160156 82.09375 -56.546875 C 78.445312 -61.941406 72.6875 -65.796875 64.8125 -68.109375 C 62.144531 -68.921875 59.648438 -69.613281 57.328125 -70.1875 C 55.015625 -70.769531 52.640625 -71.410156 50.203125 -72.109375 C 47.773438 -72.804688 45.226562 -73.585938 42.5625 -74.453125 C 39.90625 -75.316406 36.953125 -76.390625 33.703125 -77.671875 C 30.117188 -79.054688 27.398438 -81.195312 25.546875 -84.09375 C 23.691406 -86.988281 22.765625 -90.347656 22.765625 -94.171875 C 22.765625 -97.765625 23.515625 -100.921875 25.015625 -103.640625 C 26.523438 -106.359375 28.46875 -108.585938 30.84375 -110.328125 C 33.21875 -112.066406 35.9375 -113.367188 39 -114.234375 C 42.070312 -115.109375 45.171875 -115.546875 48.296875 -115.546875 C 53.046875 -115.546875 57.21875 -114.734375 60.8125 -113.109375 C 64.40625 -111.484375 67.414062 -109.335938 69.84375 -106.671875 C 72.28125 -104.015625 74.222656 -100.945312 75.671875 -97.46875 C 77.117188 -94 78.070312 -90.410156 78.53125 -86.703125 C 78.644531 -85.546875 79.164062 -84.96875 80.09375 -84.96875 C 80.90625 -84.96875 81.3125 -85.546875 81.3125 -86.703125 L 81.3125 -117.625 C 81.3125 -118.78125 80.960938 -119.359375 80.265625 -119.359375 C 79.691406 -119.359375 79.054688 -118.894531 78.359375 -117.96875 Z M 78.359375 -117.96875 "/></g></g></g><g clip-path="url(#e5d4c9f2e9)"><path fill="#000000" d="M 57.351562 172.328125 L 316.421875 172.328125 L 316.421875 202.378906 L 57.351562 202.378906 Z M 57.351562 172.328125 " fill-opacity="1" fill-rule="nonzero"/></g><g fill="#ffffff" fill-opacity="1"><g transform="translate(94.3734, 190.155338)"><g><path d="M 4.15625 0.15625 C 3.425781 0.15625 2.71875 0.0546875 2.03125 -0.140625 C 1.34375 -0.335938 0.789062 -0.597656 0.375 -0.921875 L 1.109375 -2.53125 C 1.503906 -2.238281 1.972656 -2.003906 2.515625 -1.828125 C 3.066406 -1.648438 3.617188 -1.5625 4.171875 -1.5625 C 4.785156 -1.5625 5.238281 -1.648438 5.53125 -1.828125 C 5.820312 -2.015625 5.96875 -2.257812 5.96875 -2.5625 C 5.96875 -2.78125 5.878906 -2.960938 5.703125 -3.109375 C 5.535156 -3.253906 5.316406 -3.367188 5.046875 -3.453125 C 4.773438 -3.546875 4.40625 -3.648438 3.9375 -3.765625 C 3.226562 -3.929688 2.648438 -4.097656 2.203125 -4.265625 C 1.753906 -4.429688 1.367188 -4.695312 1.046875 -5.0625 C 0.722656 -5.4375 0.5625 -5.9375 0.5625 -6.5625 C 0.5625 -7.101562 0.707031 -7.59375 1 -8.03125 C 1.289062 -8.46875 1.726562 -8.8125 2.3125 -9.0625 C 2.90625 -9.320312 3.625 -9.453125 4.46875 -9.453125 C 5.0625 -9.453125 5.640625 -9.378906 6.203125 -9.234375 C 6.773438 -9.097656 7.273438 -8.898438 7.703125 -8.640625 L 7.046875 -7 C 6.179688 -7.488281 5.320312 -7.734375 4.46875 -7.734375 C 3.863281 -7.734375 3.414062 -7.632812 3.125 -7.4375 C 2.84375 -7.238281 2.703125 -6.984375 2.703125 -6.671875 C 2.703125 -6.347656 2.863281 -6.109375 3.1875 -5.953125 C 3.519531 -5.796875 4.03125 -5.644531 4.71875 -5.5 C 5.425781 -5.332031 6.003906 -5.160156 6.453125 -4.984375 C 6.898438 -4.816406 7.285156 -4.550781 7.609375 -4.1875 C 7.941406 -3.832031 8.109375 -3.34375 8.109375 -2.71875 C 8.109375 -2.1875 7.957031 -1.703125 7.65625 -1.265625 C 7.363281 -0.828125 6.921875 -0.476562 6.328125 -0.21875 C 5.734375 0.03125 5.007812 0.15625 4.15625 0.15625 Z M 4.15625 0.15625 "/></g></g></g><g fill="#ffffff" fill-opacity="1"><g transform="translate(107.431659, 190.155338)"><g><path d="M 7.21875 -2 L 2.90625 -2 L 2.078125 0 L -0.125 0 L 4.03125 -9.296875 L 6.15625 -9.296875 L 10.3125 0 L 8.046875 0 Z M 6.546875 -3.625 L 5.078125 -7.1875 L 3.59375 -3.625 Z M 6.546875 -3.625 "/></g></g></g><g fill="#ffffff" fill-opacity="1"><g transform="translate(122.187923, 190.155338)"><g><path d="M 3.03125 -7.546875 L 0.046875 -7.546875 L 0.046875 -9.296875 L 8.15625 -9.296875 L 8.15625 -7.546875 L 5.1875 -7.546875 L 5.1875 0 L 3.03125 0 Z M 3.03125 -7.546875 "/></g></g></g><g fill="#ffffff" fill-opacity="1"><g transform="translate(134.980863, 190.155338)"><g><path d="M 9.625 -9.296875 L 9.625 0 L 7.484375 0 L 7.484375 -3.8125 L 3.25 -3.8125 L 3.25 0 L 1.109375 0 L 1.109375 -9.296875 L 3.25 -9.296875 L 3.25 -5.625 L 7.484375 -5.625 L 7.484375 -9.296875 Z M 9.625 -9.296875 "/></g></g></g><g fill="#ffffff" fill-opacity="1"><g transform="translate(150.294281, 190.155338)"><g><path d="M 1.109375 -9.296875 L 3.25 -9.296875 L 3.25 0 L 1.109375 0 Z M 1.109375 -9.296875 "/></g></g></g><g fill="#ffffff" fill-opacity="1"><g transform="translate(159.240173, 190.155338)"><g><path d="M 4.15625 0.15625 C 3.425781 0.15625 2.71875 0.0546875 2.03125 -0.140625 C 1.34375 -0.335938 0.789062 -0.597656 0.375 -0.921875 L 1.109375 -2.53125 C 1.503906 -2.238281 1.972656 -2.003906 2.515625 -1.828125 C 3.066406 -1.648438 3.617188 -1.5625 4.171875 -1.5625 C 4.785156 -1.5625 5.238281 -1.648438 5.53125 -1.828125 C 5.820312 -2.015625 5.96875 -2.257812 5.96875 -2.5625 C 5.96875 -2.78125 5.878906 -2.960938 5.703125 -3.109375 C 5.535156 -3.253906 5.316406 -3.367188 5.046875 -3.453125 C 4.773438 -3.546875 4.40625 -3.648438 3.9375 -3.765625 C 3.226562 -3.929688 2.648438 -4.097656 2.203125 -4.265625 C 1.753906 -4.429688 1.367188 -4.695312 1.046875 -5.0625 C 0.722656 -5.4375 0.5625 -5.9375 0.5625 -6.5625 C 0.5625 -7.101562 0.707031 -7.59375 1 -8.03125 C 1.289062 -8.46875 1.726562 -8.8125 2.3125 -9.0625 C 2.90625 -9.320312 3.625 -9.453125 4.46875 -9.453125 C 5.0625 -9.453125 5.640625 -9.378906 6.203125 -9.234375 C 6.773438 -9.097656 7.273438 -8.898438 7.703125 -8.640625 L 7.046875 -7 C 6.179688 -7.488281 5.320312 -7.734375 4.46875 -7.734375 C 3.863281 -7.734375 3.414062 -7.632812 3.125 -7.4375 C 2.84375 -7.238281 2.703125 -6.984375 2.703125 -6.671875 C 2.703125 -6.347656 2.863281 -6.109375 3.1875 -5.953125 C 3.519531 -5.796875 4.03125 -5.644531 4.71875 -5.5 C 5.425781 -5.332031 6.003906 -5.160156 6.453125 -4.984375 C 6.898438 -4.816406 7.285156 -4.550781 7.609375 -4.1875 C 7.941406 -3.832031 8.109375 -3.34375 8.109375 -2.71875 C 8.109375 -2.1875 7.957031 -1.703125 7.65625 -1.265625 C 7.363281 -0.828125 6.921875 -0.476562 6.328125 -0.21875 C 5.734375 0.03125 5.007812 0.15625 4.15625 0.15625 Z M 4.15625 0.15625 "/></g></g></g><g fill="#ffffff" fill-opacity="1"><g transform="translate(172.29843, 190.155338)"><g><path d="M 9.625 -9.296875 L 9.625 0 L 7.484375 0 L 7.484375 -3.8125 L 3.25 -3.8125 L 3.25 0 L 1.109375 0 L 1.109375 -9.296875 L 3.25 -9.296875 L 3.25 -5.625 L 7.484375 -5.625 L 7.484375 -9.296875 Z M 9.625 -9.296875 "/></g></g></g><g fill="#ffffff" fill-opacity="1"><g transform="translate(187.611848, 190.155338)"><g/></g></g><g fill="#ffffff" fill-opacity="1"><g transform="translate(195.960799, 190.155338)"><g><path d="M 4.484375 -3.65625 L 3.234375 -2.34375 L 3.234375 0 L 1.109375 0 L 1.109375 -9.296875 L 3.234375 -9.296875 L 3.234375 -4.953125 L 7.359375 -9.296875 L 9.75 -9.296875 L 5.890625 -5.15625 L 9.96875 0 L 7.46875 0 Z M 4.484375 -3.65625 "/></g></g></g><g fill="#ffffff" fill-opacity="1"><g transform="translate(210.372148, 190.155338)"><g><path d="M 5.609375 0.15625 C 4.640625 0.15625 3.765625 -0.0507812 2.984375 -0.46875 C 2.210938 -0.882812 1.609375 -1.457031 1.171875 -2.1875 C 0.734375 -2.914062 0.515625 -3.738281 0.515625 -4.65625 C 0.515625 -5.5625 0.734375 -6.378906 1.171875 -7.109375 C 1.609375 -7.835938 2.210938 -8.410156 2.984375 -8.828125 C 3.765625 -9.242188 4.640625 -9.453125 5.609375 -9.453125 C 6.566406 -9.453125 7.429688 -9.242188 8.203125 -8.828125 C 8.972656 -8.410156 9.578125 -7.835938 10.015625 -7.109375 C 10.460938 -6.378906 10.6875 -5.5625 10.6875 -4.65625 C 10.6875 -3.738281 10.460938 -2.914062 10.015625 -2.1875 C 9.578125 -1.457031 8.972656 -0.882812 8.203125 -0.46875 C 7.429688 -0.0507812 6.566406 0.15625 5.609375 0.15625 Z M 5.609375 -1.671875 C 6.148438 -1.671875 6.640625 -1.796875 7.078125 -2.046875 C 7.523438 -2.304688 7.875 -2.660156 8.125 -3.109375 C 8.382812 -3.554688 8.515625 -4.070312 8.515625 -4.65625 C 8.515625 -5.226562 8.382812 -5.738281 8.125 -6.1875 C 7.875 -6.632812 7.523438 -6.984375 7.078125 -7.234375 C 6.640625 -7.492188 6.148438 -7.625 5.609375 -7.625 C 5.054688 -7.625 4.554688 -7.492188 4.109375 -7.234375 C 3.671875 -6.984375 3.328125 -6.632812 3.078125 -6.1875 C 2.828125 -5.738281 2.703125 -5.226562 2.703125 -4.65625 C 2.703125 -4.070312 2.828125 -3.554688 3.078125 -3.109375 C 3.328125 -2.660156 3.671875 -2.304688 4.109375 -2.046875 C 4.554688 -1.796875 5.054688 -1.671875 5.609375 -1.671875 Z M 5.609375 -1.671875 "/></g></g></g><g fill="#ffffff" fill-opacity="1"><g transform="translate(226.163129, 190.155338)"><g><path d="M 9.5625 0 L 9.546875 -5.578125 L 6.8125 -0.984375 L 5.84375 -0.984375 L 3.125 -5.453125 L 3.125 0 L 1.109375 0 L 1.109375 -9.296875 L 2.875 -9.296875 L 6.359375 -3.515625 L 9.78125 -9.296875 L 11.5625 -9.296875 L 11.578125 0 Z M 9.5625 0 "/></g></g></g><g fill="#ffffff" fill-opacity="1"><g transform="translate(243.426598, 190.155338)"><g><path d="M 1.109375 -9.296875 L 3.25 -9.296875 L 3.25 0 L 1.109375 0 Z M 1.109375 -9.296875 "/></g></g></g><g fill="#ffffff" fill-opacity="1"><g transform="translate(252.372489, 190.155338)"><g><path d="M 7.03125 0 L 5.234375 -2.59375 L 3.25 -2.59375 L 3.25 0 L 1.109375 0 L 1.109375 -9.296875 L 5.125 -9.296875 C 5.945312 -9.296875 6.660156 -9.15625 7.265625 -8.875 C 7.878906 -8.601562 8.347656 -8.210938 8.671875 -7.703125 C 9.003906 -7.203125 9.171875 -6.609375 9.171875 -5.921875 C 9.171875 -5.234375 9.003906 -4.640625 8.671875 -4.140625 C 8.335938 -3.640625 7.863281 -3.253906 7.25 -2.984375 L 9.34375 0 Z M 6.984375 -5.921875 C 6.984375 -6.441406 6.816406 -6.84375 6.484375 -7.125 C 6.148438 -7.40625 5.65625 -7.546875 5 -7.546875 L 3.25 -7.546875 L 3.25 -4.296875 L 5 -4.296875 C 5.65625 -4.296875 6.148438 -4.4375 6.484375 -4.71875 C 6.816406 -5.007812 6.984375 -5.410156 6.984375 -5.921875 Z M 6.984375 -5.921875 "/></g></g></g><g fill="#ffffff" fill-opacity="1"><g transform="translate(266.717509, 190.155338)"><g><path d="M 8.296875 -1.734375 L 8.296875 0 L 1.109375 0 L 1.109375 -9.296875 L 8.125 -9.296875 L 8.125 -7.578125 L 3.234375 -7.578125 L 3.234375 -5.546875 L 7.5625 -5.546875 L 7.5625 -3.875 L 3.234375 -3.875 L 3.234375 -1.734375 Z M 8.296875 -1.734375 "/></g></g></g></svg>