<svg xmlns="http://www.w3.org/2000/svg" xmlns:xlink="http://www.w3.org/1999/xlink" width="500" zoomAndPan="magnify" viewBox="0 0 375 374.999991" height="500" preserveAspectRatio="xMidYMid meet" version="1.0"><defs><g/><clipPath id="ab6798226d"><path d="M 27.722656 191.421875 L 186.75 191.421875 L 186.75 202.566406 L 27.722656 202.566406 Z M 27.722656 191.421875 " clip-rule="nonzero"/></clipPath><clipPath id="88d831080a"><path d="M 194.894531 151.316406 L 337.929688 151.316406 L 337.929688 162.4375 L 194.894531 162.4375 Z M 194.894531 151.316406 " clip-rule="nonzero"/></clipPath></defs><g clip-path="url(#ab6798226d)"><path fill="#ffffff" d="M 27.722656 191.421875 L 186.746094 191.421875 L 186.746094 202.566406 L 27.722656 202.566406 Z M 27.722656 191.421875 " fill-opacity="1" fill-rule="nonzero"/></g><g clip-path="url(#88d831080a)"><path fill="#ffffff" d="M 194.894531 151.316406 L 337.929688 151.316406 L 337.929688 162.4375 L 194.894531 162.4375 Z M 194.894531 151.316406 " fill-opacity="1" fill-rule="nonzero"/></g><g fill="#ffffff" fill-opacity="1"><g transform="translate(30.619091, 171.438577)"><g><path d="M 9.1875 0.390625 C 7.539062 0.390625 6.125 0.117188 4.9375 -0.421875 C 3.75 -0.960938 2.832031 -1.734375 2.1875 -2.734375 C 1.550781 -3.734375 1.234375 -4.90625 1.234375 -6.25 L 5.59375 -6.25 C 5.59375 -5.3125 5.914062 -4.582031 6.5625 -4.0625 C 7.207031 -3.539062 8.070312 -3.28125 9.15625 -3.28125 C 10.09375 -3.28125 10.832031 -3.460938 11.375 -3.828125 C 11.914062 -4.191406 12.1875 -4.695312 12.1875 -5.34375 C 12.1875 -6.039062 11.859375 -6.601562 11.203125 -7.03125 C 10.546875 -7.457031 9.523438 -7.820312 8.140625 -8.125 C 5.847656 -8.601562 4.148438 -9.335938 3.046875 -10.328125 C 1.953125 -11.316406 1.40625 -12.609375 1.40625 -14.203125 C 1.40625 -15.992188 2.054688 -17.40625 3.359375 -18.4375 C 4.660156 -19.46875 6.441406 -19.984375 8.703125 -19.984375 C 10.253906 -19.984375 11.597656 -19.71875 12.734375 -19.1875 C 13.878906 -18.65625 14.765625 -17.910156 15.390625 -16.953125 C 16.015625 -15.992188 16.328125 -14.851562 16.328125 -13.53125 L 12.046875 -13.53125 C 12.046875 -14.40625 11.753906 -15.09375 11.171875 -15.59375 C 10.585938 -16.101562 9.785156 -16.359375 8.765625 -16.359375 C 7.828125 -16.359375 7.085938 -16.175781 6.546875 -15.8125 C 6.003906 -15.445312 5.734375 -14.9375 5.734375 -14.28125 C 5.734375 -13.6875 6.03125 -13.179688 6.625 -12.765625 C 7.226562 -12.359375 8.273438 -11.976562 9.765625 -11.625 C 12.210938 -11.039062 13.976562 -10.265625 15.0625 -9.296875 C 16.144531 -8.328125 16.6875 -7.066406 16.6875 -5.515625 C 16.6875 -3.671875 16.019531 -2.222656 14.6875 -1.171875 C 13.351562 -0.128906 11.519531 0.390625 9.1875 0.390625 Z M 9.1875 0.390625 "/></g></g></g><g fill="#ffffff" fill-opacity="1"><g transform="translate(54.360649, 171.438577)"><g><path d="M 0.25 0 L 8.03125 -19.59375 L 12.40625 -19.59375 L 20.1875 0 L 15.421875 0 L 14.109375 -3.390625 L 6.328125 -3.390625 L 5.015625 0 Z M 7.46875 -6.890625 L 12.984375 -6.890625 L 10.21875 -14.0625 Z M 7.46875 -6.890625 "/></g></g></g><g fill="#ffffff" fill-opacity="1"><g transform="translate(80.593871, 171.438577)"><g><path d="M 7.0625 0 L 7.0625 -15.421875 L 0.84375 -15.421875 L 0.84375 -19.59375 L 17.71875 -19.59375 L 17.71875 -15.421875 L 11.515625 -15.421875 L 11.515625 0 Z M 7.0625 0 "/></g></g></g><g fill="#ffffff" fill-opacity="1"><g transform="translate(104.951348, 171.438577)"><g><path d="M 14.46875 0 L 14.46875 -7.890625 L 6.796875 -7.890625 L 6.796875 0 L 2.359375 0 L 2.359375 -19.59375 L 6.796875 -19.59375 L 6.796875 -12.0625 L 14.46875 -12.0625 L 14.46875 -19.59375 L 18.921875 -19.59375 L 18.921875 0 Z M 14.46875 0 "/></g></g></g><g fill="#ffffff" fill-opacity="1"><g transform="translate(132.024451, 171.438577)"><g><path d="M 2.359375 0 L 2.359375 -19.59375 L 6.796875 -19.59375 L 6.796875 0 Z M 2.359375 0 "/></g></g></g><g fill="#ffffff" fill-opacity="1"><g transform="translate(146.975206, 171.438577)"><g><path d="M 9.1875 0.390625 C 7.539062 0.390625 6.125 0.117188 4.9375 -0.421875 C 3.75 -0.960938 2.832031 -1.734375 2.1875 -2.734375 C 1.550781 -3.734375 1.234375 -4.90625 1.234375 -6.25 L 5.59375 -6.25 C 5.59375 -5.3125 5.914062 -4.582031 6.5625 -4.0625 C 7.207031 -3.539062 8.070312 -3.28125 9.15625 -3.28125 C 10.09375 -3.28125 10.832031 -3.460938 11.375 -3.828125 C 11.914062 -4.191406 12.1875 -4.695312 12.1875 -5.34375 C 12.1875 -6.039062 11.859375 -6.601562 11.203125 -7.03125 C 10.546875 -7.457031 9.523438 -7.820312 8.140625 -8.125 C 5.847656 -8.601562 4.148438 -9.335938 3.046875 -10.328125 C 1.953125 -11.316406 1.40625 -12.609375 1.40625 -14.203125 C 1.40625 -15.992188 2.054688 -17.40625 3.359375 -18.4375 C 4.660156 -19.46875 6.441406 -19.984375 8.703125 -19.984375 C 10.253906 -19.984375 11.597656 -19.71875 12.734375 -19.1875 C 13.878906 -18.65625 14.765625 -17.910156 15.390625 -16.953125 C 16.015625 -15.992188 16.328125 -14.851562 16.328125 -13.53125 L 12.046875 -13.53125 C 12.046875 -14.40625 11.753906 -15.09375 11.171875 -15.59375 C 10.585938 -16.101562 9.785156 -16.359375 8.765625 -16.359375 C 7.828125 -16.359375 7.085938 -16.175781 6.546875 -15.8125 C 6.003906 -15.445312 5.734375 -14.9375 5.734375 -14.28125 C 5.734375 -13.6875 6.03125 -13.179688 6.625 -12.765625 C 7.226562 -12.359375 8.273438 -11.976562 9.765625 -11.625 C 12.210938 -11.039062 13.976562 -10.265625 15.0625 -9.296875 C 16.144531 -8.328125 16.6875 -7.066406 16.6875 -5.515625 C 16.6875 -3.671875 16.019531 -2.222656 14.6875 -1.171875 C 13.351562 -0.128906 11.519531 0.390625 9.1875 0.390625 Z M 9.1875 0.390625 "/></g></g></g><g fill="#ffffff" fill-opacity="1"><g transform="translate(170.716763, 171.438577)"><g><path d="M 14.46875 0 L 14.46875 -7.890625 L 6.796875 -7.890625 L 6.796875 0 L 2.359375 0 L 2.359375 -19.59375 L 6.796875 -19.59375 L 6.796875 -12.0625 L 14.46875 -12.0625 L 14.46875 -19.59375 L 18.921875 -19.59375 L 18.921875 0 Z M 14.46875 0 "/></g></g></g><g fill="#ffffff" fill-opacity="1"><g transform="translate(190.398009, 200.422312)"><g><path d="M 2.359375 0 L 2.359375 -19.59375 L 6.796875 -19.59375 L 6.796875 -12.0625 L 8.484375 -12.0625 C 9.585938 -12.0625 10.394531 -12.238281 10.90625 -12.59375 C 11.414062 -12.945312 11.84375 -13.582031 12.1875 -14.5 L 14.03125 -19.59375 L 18.84375 -19.59375 L 16.125 -12.625 C 15.882812 -11.988281 15.609375 -11.414062 15.296875 -10.90625 C 14.992188 -10.40625 14.644531 -9.972656 14.25 -9.609375 L 19.546875 0 L 14.359375 0 L 10.15625 -7.953125 C 9.988281 -7.929688 9.828125 -7.921875 9.671875 -7.921875 C 9.515625 -7.921875 9.34375 -7.921875 9.15625 -7.921875 L 6.796875 -7.921875 L 6.796875 0 Z M 2.359375 0 "/></g></g></g><g fill="#ffffff" fill-opacity="1"><g transform="translate(216.547242, 200.422312)"><g><path d="M 11.640625 0.390625 C 9.609375 0.390625 7.800781 -0.0390625 6.21875 -0.90625 C 4.644531 -1.78125 3.414062 -2.976562 2.53125 -4.5 C 1.644531 -6.03125 1.203125 -7.796875 1.203125 -9.796875 C 1.203125 -11.796875 1.644531 -13.5625 2.53125 -15.09375 C 3.414062 -16.625 4.644531 -17.820312 6.21875 -18.6875 C 7.800781 -19.550781 9.609375 -19.984375 11.640625 -19.984375 C 13.703125 -19.984375 15.515625 -19.550781 17.078125 -18.6875 C 18.648438 -17.820312 19.882812 -16.625 20.78125 -15.09375 C 21.675781 -13.5625 22.125 -11.796875 22.125 -9.796875 C 22.125 -7.796875 21.675781 -6.03125 20.78125 -4.5 C 19.882812 -2.976562 18.648438 -1.78125 17.078125 -0.90625 C 15.515625 -0.0390625 13.703125 0.390625 11.640625 0.390625 Z M 5.734375 -9.796875 C 5.734375 -8.617188 5.984375 -7.582031 6.484375 -6.6875 C 6.992188 -5.789062 7.691406 -5.09375 8.578125 -4.59375 C 9.460938 -4.09375 10.484375 -3.84375 11.640625 -3.84375 C 12.816406 -3.84375 13.847656 -4.09375 14.734375 -4.59375 C 15.628906 -5.09375 16.320312 -5.789062 16.8125 -6.6875 C 17.3125 -7.582031 17.5625 -8.617188 17.5625 -9.796875 C 17.5625 -10.972656 17.3125 -12.007812 16.8125 -12.90625 C 16.320312 -13.800781 15.628906 -14.5 14.734375 -15 C 13.847656 -15.507812 12.816406 -15.765625 11.640625 -15.765625 C 10.484375 -15.765625 9.460938 -15.507812 8.578125 -15 C 7.691406 -14.5 6.992188 -13.800781 6.484375 -12.90625 C 5.984375 -12.007812 5.734375 -10.972656 5.734375 -9.796875 Z M 5.734375 -9.796875 "/></g></g></g><g fill="#ffffff" fill-opacity="1"><g transform="translate(245.664064, 200.422312)"><g><path d="M 2.359375 0 L 2.359375 -19.59375 L 6.125 -19.59375 L 13.109375 -9.4375 L 20.046875 -19.59375 L 23.796875 -19.59375 L 23.796875 0 L 19.375 0 L 19.375 -11.78125 L 14.609375 -4.84375 L 11.53125 -4.84375 L 6.78125 -11.8125 L 6.78125 0 Z M 2.359375 0 "/></g></g></g><g fill="#ffffff" fill-opacity="1"><g transform="translate(277.608505, 200.422312)"><g><path d="M 2.359375 0 L 2.359375 -19.59375 L 6.796875 -19.59375 L 6.796875 0 Z M 2.359375 0 "/></g></g></g><g fill="#ffffff" fill-opacity="1"><g transform="translate(292.55926, 200.422312)"><g><path d="M 2.359375 0 L 2.359375 -19.59375 L 10.71875 -19.59375 C 12.21875 -19.59375 13.515625 -19.320312 14.609375 -18.78125 C 15.710938 -18.238281 16.5625 -17.460938 17.15625 -16.453125 C 17.757812 -15.453125 18.0625 -14.253906 18.0625 -12.859375 C 18.0625 -11.421875 17.734375 -10.179688 17.078125 -9.140625 C 16.421875 -8.109375 15.507812 -7.328125 14.34375 -6.796875 L 18.390625 0 L 13.25 0 L 9.75 -6.109375 L 6.796875 -6.109375 L 6.796875 0 Z M 6.75 -9.859375 L 10.140625 -9.859375 C 11.234375 -9.859375 12.070312 -10.113281 12.65625 -10.625 C 13.25 -11.132812 13.546875 -11.867188 13.546875 -12.828125 C 13.546875 -13.773438 13.25 -14.503906 12.65625 -15.015625 C 12.070312 -15.535156 11.234375 -15.796875 10.140625 -15.796875 L 6.75 -15.796875 Z M 6.75 -9.859375 "/></g></g></g><g fill="#ffffff" fill-opacity="1"><g transform="translate(318.064579, 200.422312)"><g><path d="M 2.359375 0 L 2.359375 -19.59375 L 15.234375 -19.59375 L 15.234375 -15.84375 L 6.78125 -15.84375 L 6.78125 -11.78125 L 14.46875 -11.78125 L 14.46875 -8.0625 L 6.78125 -8.0625 L 6.78125 -3.78125 L 15.546875 -3.78125 L 15.546875 0 Z M 2.359375 0 "/></g></g></g></svg>